<svg xmlns="http://www.w3.org/2000/svg" width="52" height="64" viewBox="0 0 52 64"><g stroke="#9d9582" stroke-width=".75" stroke-linecap="round" stroke-linejoin="round"><g fill="none"><path d="M24 59 Q27 38 27 13 M25 48 Q17 32 9 23 M26 41 Q35 28 45 22 M26 33 L18 12 M27 28 L36 9 M19 36 L9 14 M32 33 L42 12"/></g><path d="M27 40 Q9 35 9 23" fill="none" stroke-width=".45"/><ellipse cx="10.7" cy="23" rx="1.25" ry=".9" fill="#b9b19f" stroke-width=".3"/><ellipse cx="9.525328890437411" cy="24.61679607770176" rx="1.25" ry=".9" fill="#b9b19f" stroke-width=".3"/><ellipse cx="7.624671109562589" cy="23.999234928897206" rx="1.25" ry=".9" fill="#b9b19f" stroke-width=".3"/><ellipse cx="7.624671109562589" cy="22.000765071102794" rx="1.25" ry=".9" fill="#b9b19f" stroke-width=".3"/><ellipse cx="9.525328890437411" cy="21.38320392229824" rx="1.25" ry=".9" fill="#b9b19f" stroke-width=".3"/><path d="M27 40 Q9 26 9 14" fill="none" stroke-width=".45"/><ellipse cx="10.7" cy="14" rx="1.25" ry=".9" fill="#b9b19f" stroke-width=".3"/><ellipse cx="9.525328890437411" cy="15.61679607770176" rx="1.25" ry=".9" fill="#b9b19f" stroke-width=".3"/><ellipse cx="7.624671109562589" cy="14.999234928897204" rx="1.25" ry=".9" fill="#b9b19f" stroke-width=".3"/><ellipse cx="7.624671109562589" cy="13.000765071102796" rx="1.25" ry=".9" fill="#b9b19f" stroke-width=".3"/><ellipse cx="9.525328890437411" cy="12.38320392229824" rx="1.25" ry=".9" fill="#b9b19f" stroke-width=".3"/><path d="M27 40 Q18 24 18 12" fill="none" stroke-width=".45"/><ellipse cx="19.7" cy="12" rx="1.25" ry=".9" fill="#b9b19f" stroke-width=".3"/><ellipse cx="18.52532889043741" cy="13.61679607770176" rx="1.25" ry=".9" fill="#b9b19f" stroke-width=".3"/><ellipse cx="16.62467110956259" cy="12.999234928897204" rx="1.25" ry=".9" fill="#b9b19f" stroke-width=".3"/><ellipse cx="16.62467110956259" cy="11.000765071102796" rx="1.25" ry=".9" fill="#b9b19f" stroke-width=".3"/><ellipse cx="18.52532889043741" cy="10.38320392229824" rx="1.25" ry=".9" fill="#b9b19f" stroke-width=".3"/><path d="M27 40 Q27 25 27 13" fill="none" stroke-width=".45"/><ellipse cx="28.7" cy="13" rx="1.25" ry=".9" fill="#b9b19f" stroke-width=".3"/><ellipse cx="27.52532889043741" cy="14.61679607770176" rx="1.25" ry=".9" fill="#b9b19f" stroke-width=".3"/><ellipse cx="25.62467110956259" cy="13.999234928897204" rx="1.25" ry=".9" fill="#b9b19f" stroke-width=".3"/><ellipse cx="25.62467110956259" cy="12.000765071102796" rx="1.25" ry=".9" fill="#b9b19f" stroke-width=".3"/><ellipse cx="27.52532889043741" cy="11.38320392229824" rx="1.25" ry=".9" fill="#b9b19f" stroke-width=".3"/><path d="M27 40 Q36 21 36 9" fill="none" stroke-width=".45"/><ellipse cx="37.7" cy="9" rx="1.25" ry=".9" fill="#b9b19f" stroke-width=".3"/><ellipse cx="36.52532889043741" cy="10.61679607770176" rx="1.25" ry=".9" fill="#b9b19f" stroke-width=".3"/><ellipse cx="34.62467110956259" cy="9.999234928897204" rx="1.25" ry=".9" fill="#b9b19f" stroke-width=".3"/><ellipse cx="34.62467110956259" cy="8.000765071102796" rx="1.25" ry=".9" fill="#b9b19f" stroke-width=".3"/><ellipse cx="36.52532889043741" cy="7.383203922298239" rx="1.25" ry=".9" fill="#b9b19f" stroke-width=".3"/><path d="M27 40 Q45 34 45 22" fill="none" stroke-width=".45"/><ellipse cx="46.7" cy="22" rx="1.25" ry=".9" fill="#b9b19f" stroke-width=".3"/><ellipse cx="45.52532889043741" cy="23.61679607770176" rx="1.25" ry=".9" fill="#b9b19f" stroke-width=".3"/><ellipse cx="43.62467110956259" cy="22.999234928897206" rx="1.25" ry=".9" fill="#b9b19f" stroke-width=".3"/><ellipse cx="43.62467110956259" cy="21.000765071102794" rx="1.25" ry=".9" fill="#b9b19f" stroke-width=".3"/><ellipse cx="45.52532889043741" cy="20.38320392229824" rx="1.25" ry=".9" fill="#b9b19f" stroke-width=".3"/><path d="M27 40 Q42 24 42 12" fill="none" stroke-width=".45"/><ellipse cx="43.7" cy="12" rx="1.25" ry=".9" fill="#b9b19f" stroke-width=".3"/><ellipse cx="42.52532889043741" cy="13.61679607770176" rx="1.25" ry=".9" fill="#b9b19f" stroke-width=".3"/><ellipse cx="40.62467110956259" cy="12.999234928897204" rx="1.25" ry=".9" fill="#b9b19f" stroke-width=".3"/><ellipse cx="40.62467110956259" cy="11.000765071102796" rx="1.25" ry=".9" fill="#b9b19f" stroke-width=".3"/><ellipse cx="42.52532889043741" cy="10.38320392229824" rx="1.25" ry=".9" fill="#b9b19f" stroke-width=".3"/><path d="M27 40 Q14 30 14 18" fill="none" stroke-width=".45"/><ellipse cx="15.7" cy="18" rx="1.25" ry=".9" fill="#b9b19f" stroke-width=".3"/><ellipse cx="14.525328890437411" cy="19.61679607770176" rx="1.25" ry=".9" fill="#b9b19f" stroke-width=".3"/><ellipse cx="12.62467110956259" cy="18.999234928897206" rx="1.25" ry=".9" fill="#b9b19f" stroke-width=".3"/><ellipse cx="12.62467110956259" cy="17.000765071102794" rx="1.25" ry=".9" fill="#b9b19f" stroke-width=".3"/><ellipse cx="14.525328890437411" cy="16.38320392229824" rx="1.25" ry=".9" fill="#b9b19f" stroke-width=".3"/><path d="M27 40 Q23 20 23 8" fill="none" stroke-width=".45"/><ellipse cx="24.7" cy="8" rx="1.25" ry=".9" fill="#b9b19f" stroke-width=".3"/><ellipse cx="23.52532889043741" cy="9.61679607770176" rx="1.25" ry=".9" fill="#b9b19f" stroke-width=".3"/><ellipse cx="21.62467110956259" cy="8.999234928897204" rx="1.25" ry=".9" fill="#b9b19f" stroke-width=".3"/><ellipse cx="21.62467110956259" cy="7.000765071102796" rx="1.25" ry=".9" fill="#b9b19f" stroke-width=".3"/><ellipse cx="23.52532889043741" cy="6.383203922298239" rx="1.25" ry=".9" fill="#b9b19f" stroke-width=".3"/><path d="M27 40 Q32 29 32 17" fill="none" stroke-width=".45"/><ellipse cx="33.7" cy="17" rx="1.25" ry=".9" fill="#b9b19f" stroke-width=".3"/><ellipse cx="32.52532889043741" cy="18.61679607770176" rx="1.25" ry=".9" fill="#b9b19f" stroke-width=".3"/><ellipse cx="30.62467110956259" cy="17.999234928897206" rx="1.25" ry=".9" fill="#b9b19f" stroke-width=".3"/><ellipse cx="30.62467110956259" cy="16.000765071102794" rx="1.25" ry=".9" fill="#b9b19f" stroke-width=".3"/><ellipse cx="32.52532889043741" cy="15.38320392229824" rx="1.25" ry=".9" fill="#b9b19f" stroke-width=".3"/><path d="M27 40 Q39 37 39 25" fill="none" stroke-width=".45"/><ellipse cx="40.7" cy="25" rx="1.25" ry=".9" fill="#b9b19f" stroke-width=".3"/><ellipse cx="39.52532889043741" cy="26.61679607770176" rx="1.25" ry=".9" fill="#b9b19f" stroke-width=".3"/><ellipse cx="37.62467110956259" cy="25.999234928897206" rx="1.25" ry=".9" fill="#b9b19f" stroke-width=".3"/><ellipse cx="37.62467110956259" cy="24.000765071102794" rx="1.25" ry=".9" fill="#b9b19f" stroke-width=".3"/><ellipse cx="39.52532889043741" cy="23.38320392229824" rx="1.25" ry=".9" fill="#b9b19f" stroke-width=".3"/></g></svg>