<svg xmlns="http://www.w3.org/2000/svg" width="52" height="64" viewBox="0 0 52 64"><g stroke="#9d9582" stroke-width=".75" stroke-linecap="round" stroke-linejoin="round"><path d="M32 59 Q20 35 23 7" fill="none"/><path d="M28 50 Q26.88 40.65 14 39 Q16.1 49.12 28 50" fill="#c2bcaa" fill-opacity=".52"/><path d="M28 50 L14 39" fill="none" stroke-width=".45"/><path d="M27 46 Q27.96 34.95 39 33 Q37.2 44.96 27 46" fill="#c2bcaa" fill-opacity=".52"/><path d="M27 46 L39 33" fill="none" stroke-width=".45"/><path d="M25 39 Q23.88 28.8 11 27 Q13.1 38.04 25 39" fill="#c2bcaa" fill-opacity=".52"/><path d="M25 39 L11 27" fill="none" stroke-width=".45"/><path d="M24 34 Q24.96 22.950000000000003 36 21 Q34.2 32.96 24 34" fill="#c2bcaa" fill-opacity=".52"/><path d="M24 34 L36 21" fill="none" stroke-width=".45"/><path d="M23 28 Q22.04 16.950000000000003 11 15 Q12.8 26.96 23 28" fill="#c2bcaa" fill-opacity=".52"/><path d="M23 28 L11 15" fill="none" stroke-width=".45"/><path d="M23 22 Q23.8 11.8 33 10 Q31.5 21.04 23 22" fill="#c2bcaa" fill-opacity=".52"/><path d="M23 22 L33 10" fill="none" stroke-width=".45"/><path d="M23 15 Q22.6 4.800000000000001 18 3 Q18.75 14.04 23 15" fill="#c2bcaa" fill-opacity=".52"/><path d="M23 15 L18 3" fill="none" stroke-width=".45"/></g></svg>